<svg id="casino-chip" xmlns="http://www.w3.org/2000/svg" width="17.984" height="17.984" viewBox="0 0 17.984 17.984">
  <path id="Path_209" data-name="Path 209" d="M271.965,407.4v2.109a8.932,8.932,0,0,0,5.4-2.237l-1.494-1.494A6.875,6.875,0,0,1,271.965,407.4Z" transform="translate(-262.412 -391.522)" fill="#a9bfbb"/>
  <path id="Path_210" data-name="Path 210" d="M407.4,271.965a6.875,6.875,0,0,1-1.622,3.907l1.494,1.494a8.932,8.932,0,0,0,2.237-5.4Z" transform="translate(-391.522 -262.412)" fill="#a9bfbb"/>
  <path id="Path_211" data-name="Path 211" d="M91.67,2.109V0a8.932,8.932,0,0,0-5.4,2.237l1.494,1.494A6.875,6.875,0,0,1,91.67,2.109Z" transform="translate(-83.239 0)" fill="#a9bfbb"/>
  <path id="Path_212" data-name="Path 212" d="M97.116,91.332a5.784,5.784,0,1,0,5.784,5.784A5.79,5.79,0,0,0,97.116,91.332Zm-.109,5.076h.219a1.578,1.578,0,0,1,.451,3.089v1.116H96.555V99.5a1.58,1.58,0,0,1-1.126-1.512H96.55a.457.457,0,0,0,.456.456h.219a.456.456,0,1,0,0-.912h-.219a1.578,1.578,0,0,1-.451-3.089V93.324h1.122V94.44A1.58,1.58,0,0,1,98.8,95.952H97.681a.457.457,0,0,0-.456-.456h-.219a.456.456,0,0,0,0,.912Z" transform="translate(-88.124 -88.124)" fill="#a9bfbb"/>
  <path id="Path_213" data-name="Path 213" d="M275.872,3.731l1.494-1.494A8.932,8.932,0,0,0,271.965,0V2.109A6.875,6.875,0,0,1,275.872,3.731Z" transform="translate(-262.412)" fill="#a9bfbb"/>
  <path id="Path_214" data-name="Path 214" d="M3.731,87.764,2.237,86.27A8.932,8.932,0,0,0,0,91.671H2.109A6.875,6.875,0,0,1,3.731,87.764Z" transform="translate(0 -83.24)" fill="#a9bfbb"/>
  <path id="Path_215" data-name="Path 215" d="M2.109,271.965H0a8.932,8.932,0,0,0,2.237,5.4l1.494-1.494a6.875,6.875,0,0,1-1.622-3.907Z" transform="translate(0 -262.412)" fill="#a9bfbb"/>
  <path id="Path_216" data-name="Path 216" d="M87.763,405.775l-1.494,1.494a8.932,8.932,0,0,0,5.4,2.237V407.4A6.875,6.875,0,0,1,87.763,405.775Z" transform="translate(-83.239 -391.522)" fill="#a9bfbb"/>
  <path id="Path_217" data-name="Path 217" d="M407.4,91.671h2.109a8.932,8.932,0,0,0-2.237-5.4l-1.494,1.494A6.875,6.875,0,0,1,407.4,91.671Z" transform="translate(-391.521 -83.24)" fill="#a9bfbb"/>
</svg>
