<svg xmlns="http://www.w3.org/2000/svg" width="19.389" height="16.894" viewBox="0 0 19.389 16.894">
  <g id="objects" transform="translate(-0.001)">
    <path id="Path_208" data-name="Path 208" d="M13.429,15.858a1.035,1.035,0,0,1-1.036,1.036H7a1.036,1.036,0,1,1,0-2.071h5.4A1.035,1.035,0,0,1,13.429,15.858Zm5.958-13a4.114,4.114,0,0,1-.977,2.719A9.5,9.5,0,0,1,16.331,7.39l-.035.024a3.055,3.055,0,0,0-.662.551.7.7,0,0,0-.175.58.386.386,0,0,0,.757-.133.433.433,0,0,1,.863-.071,1.277,1.277,0,0,1-1.031,1.337,1.141,1.141,0,0,1-.2.017,1.289,1.289,0,0,1-1.161-.76,6.162,6.162,0,0,1-2.872,2.185v2.914H7.579V11.121A6.162,6.162,0,0,1,4.707,8.935a1.289,1.289,0,0,1-1.161.76A1.243,1.243,0,0,1,2.31,8.341a.433.433,0,0,1,.863.071.414.414,0,0,0,.318.412.416.416,0,0,0,.44-.279.7.7,0,0,0-.175-.58,3.055,3.055,0,0,0-.662-.551L3.059,7.39A9.527,9.527,0,0,1,.98,5.577,4.114,4.114,0,0,1,0,2.858,2.775,2.775,0,0,1,1.661.395,3.181,3.181,0,0,1,2.8.2a4.157,4.157,0,0,1,1.363.21L4.183.42A1.765,1.765,0,0,1,5.328,0h8.732A1.763,1.763,0,0,1,15.2.42l.019-.009A4.124,4.124,0,0,1,16.586.2a3.176,3.176,0,0,1,1.14.194,2.776,2.776,0,0,1,1.656,2.464ZM3.726,6.8a6.176,6.176,0,0,1-.173-1.447V1.777a1.76,1.76,0,0,1,.111-.612,3.488,3.488,0,0,0-.856-.1,2.307,2.307,0,0,0-.831.134A1.927,1.927,0,0,0,.87,2.9a3.263,3.263,0,0,0,.788,2.138,8.557,8.557,0,0,0,1.894,1.64l.035.024.139.1Zm14.8-3.9a1.925,1.925,0,0,0-1.108-1.7,2.317,2.317,0,0,0-.831-.134,3.488,3.488,0,0,0-.856.1,1.755,1.755,0,0,1,.111.612V5.353A6.176,6.176,0,0,1,15.665,6.8l.139-.1.035-.024a8.5,8.5,0,0,0,1.894-1.64A3.257,3.257,0,0,0,18.521,2.9Z" transform="translate(0)" fill="#a9bfbb"/>
  </g>
</svg>
