<svg xmlns="http://www.w3.org/2000/svg" width="89" height="92.181" viewBox="0 0 89 92.181">
  <path id="dragon_1_" data-name="dragon (1)" d="M88.924,80.488a2.374,2.374,0,0,0-2.673,2.053c-.006.06-.871,5.871-4.113,5.871-5.744,0-7.714-7.7-15.5-11.869,0-.016.01-.035.013-.051A124.5,124.5,0,0,0,68.686,62a.381.381,0,0,1,.6-.254l8.232,5.5a.468.468,0,0,0,.731-.413c-.254-8.169-4.164-14.876-5.69-17.26a.357.357,0,0,1,.413-.54l7.851,2.606a.475.475,0,0,0,.636-.477,37.952,37.952,0,0,0-1.24-9.027C86.55,38.128,91,28.052,91,16.895a2.387,2.387,0,0,0-4.514-1.081c-2.994,6.027-9.1,9.615-14.876,11.061a28.748,28.748,0,0,1,3.337,3.941A30.474,30.474,0,0,0,85.31,25.064c-1.3,5.658-3.878,10.044-6.675,12.365a33.165,33.165,0,0,0-3.687-6.611c-8.449,2.409-16.325,2.807-19.993,9.472A2.39,2.39,0,0,1,50.759,38C55.7,29.132,65.53,28.611,71.611,26.876a27.158,27.158,0,0,0-3.115-2.67.149.149,0,0,1-.029-.019A44.945,44.945,0,0,0,84.385,5.433a3.177,3.177,0,1,0-5.839-2.5,33.174,33.174,0,0,1-3.223,5.744l-4.545-3.76a3.179,3.179,0,0,0-4.053,4.9l4.558,3.77a35.53,35.53,0,0,1-9.666,7.247A17.994,17.994,0,0,0,46.5,23.252a17.989,17.989,0,0,0-15.114-2.425A35.465,35.465,0,0,1,21.72,13.58l4.558-3.77a3.181,3.181,0,0,0-4.056-4.9l-4.545,3.76a33.01,33.01,0,0,1-3.22-5.74,3.178,3.178,0,1,0-5.842,2.5A44.906,44.906,0,0,0,24.533,24.187a.149.149,0,0,1-.029.019,27.16,27.16,0,0,0-3.115,2.67C27.518,28.627,37.314,29.158,42.241,38a2.39,2.39,0,0,1-4.2,2.289c-3.662-6.656-11.236-6.977-19.993-9.472a33.166,33.166,0,0,0-3.687,6.611c-2.8-2.32-5.372-6.707-6.675-12.365a30.474,30.474,0,0,0,10.362,5.753,28.749,28.749,0,0,1,3.337-3.941C15.557,25.417,9.489,21.8,6.514,15.814A2.387,2.387,0,0,0,2,16.895C2,28.052,6.45,38.128,12.775,42.133a37.951,37.951,0,0,0-1.24,9.027.475.475,0,0,0,.636.477l7.851-2.606a.357.357,0,0,1,.413.54C18.91,51.954,15,58.661,14.746,66.83a.468.468,0,0,0,.731.413l8.232-5.5a.381.381,0,0,1,.6.254,124.5,124.5,0,0,0,2.034,14.494c0,.016.01.035.013.051-7.911,4.24-9.663,11.869-15.5,11.869-3.242,0-4.107-5.81-4.113-5.861a2.384,2.384,0,1,0-4.73.6c.47,3.728,2.867,10.032,8.843,10.032,8.325,0,10.5-7.861,16.7-11.84C29.021,86.2,31.055,90,33.786,90c6.357,0,6.357-3.179,12.714-3.179S52.857,90,59.214,90c2.73,0,4.765-3.8,6.224-8.662,6.208,3.983,8.4,11.84,16.7,11.84,5.976,0,8.372-6.3,8.843-10.032a2.382,2.382,0,0,0-2.057-2.66ZM33.57,45.47a6.947,6.947,0,0,1-6.818-.143,4.569,4.569,0,0,1-2.285-5.359,6.947,6.947,0,0,1,6.818.143A4.569,4.569,0,0,1,33.57,45.47Zm10.546,4.8h4.768a2.384,2.384,0,1,1,0,4.768H44.116a2.384,2.384,0,1,1,0-4.768Zm0,9.536h4.768a2.384,2.384,0,0,1,0,4.768H44.116a2.384,2.384,0,0,1,0-4.768Zm9.536,14.3a6.285,6.285,0,0,0-5.311,2.308,2.38,2.38,0,0,1-3.681,0,6.285,6.285,0,0,0-5.311-2.308,2.384,2.384,0,1,1,0-4.768A11.415,11.415,0,0,1,46.5,71.6a11.415,11.415,0,0,1,7.152-2.257,2.384,2.384,0,1,1,0,4.768ZM59.43,45.47a4.563,4.563,0,0,1,2.285-5.359,6.947,6.947,0,0,1,6.818-.143,4.563,4.563,0,0,1-2.285,5.359A6.931,6.931,0,0,1,59.43,45.47Z" transform="translate(-2 -0.999)" fill="#ef5562" opacity="0.096"/>
</svg>
