<svg xmlns="http://www.w3.org/2000/svg" width="34.83" height="36.075" viewBox="0 0 34.83 36.075">
  <path id="dragon_1_" data-name="dragon (1)" d="M36.018,32.107a.929.929,0,0,0-1.046.8c0,.024-.341,2.3-1.61,2.3-2.248,0-3.019-3.012-6.065-4.645,0-.006,0-.014,0-.02a48.723,48.723,0,0,0,.8-5.672.149.149,0,0,1,.236-.1l3.222,2.152a.183.183,0,0,0,.286-.162,13.883,13.883,0,0,0-2.227-6.755.14.14,0,0,1,.162-.211l3.073,1.02a.186.186,0,0,0,.249-.187,14.853,14.853,0,0,0-.485-3.533c2.475-1.567,4.217-5.511,4.217-9.877A.934.934,0,0,0,35.064,6.8a8.791,8.791,0,0,1-5.822,4.329,11.25,11.25,0,0,1,1.306,1.542A11.926,11.926,0,0,0,34.6,10.417a8.974,8.974,0,0,1-2.612,4.839,12.979,12.979,0,0,0-1.443-2.587c-3.306.943-6.389,1.1-7.824,3.707a.935.935,0,0,1-1.642-.9c1.933-3.471,5.781-3.675,8.16-4.354a10.628,10.628,0,0,0-1.219-1.045.058.058,0,0,1-.011-.007,17.589,17.589,0,0,0,6.23-7.339,1.243,1.243,0,1,0-2.285-.98A12.983,12.983,0,0,1,30.7,4L28.916,2.53A1.244,1.244,0,0,0,27.33,4.447l1.784,1.475a13.9,13.9,0,0,1-3.783,2.836,7.042,7.042,0,0,0-5.916.949A7.04,7.04,0,0,0,13.5,8.759,13.879,13.879,0,0,1,9.717,5.922L11.5,4.447A1.245,1.245,0,0,0,9.914,2.529L8.135,4a12.919,12.919,0,0,1-1.26-2.247,1.244,1.244,0,1,0-2.286.98,17.574,17.574,0,0,0,6.23,7.339.058.058,0,0,1-.011.007,10.629,10.629,0,0,0-1.219,1.045c2.4.685,6.232.893,8.16,4.354a.935.935,0,0,1-1.642.9c-1.433-2.6-4.4-2.73-7.824-3.707a12.98,12.98,0,0,0-1.443,2.587,8.974,8.974,0,0,1-2.612-4.839,11.926,11.926,0,0,0,4.055,2.252,11.251,11.251,0,0,1,1.306-1.542A8.785,8.785,0,0,1,3.766,6.8.934.934,0,0,0,2,7.22c0,4.366,1.742,8.309,4.217,9.877a14.852,14.852,0,0,0-.485,3.533.186.186,0,0,0,.249.187L9.053,19.8a.14.14,0,0,1,.162.211,13.883,13.883,0,0,0-2.227,6.755.183.183,0,0,0,.286.162L10.5,24.772a.149.149,0,0,1,.236.1,48.723,48.723,0,0,0,.8,5.672c0,.006,0,.014,0,.02-3.1,1.659-3.782,4.645-6.065,4.645-1.269,0-1.607-2.274-1.61-2.294a.933.933,0,1,0-1.851.234c.184,1.459,1.122,3.926,3.461,3.926C8.726,37.074,9.577,34,12,32.441c.572,1.9,1.368,3.39,2.437,3.39,2.488,0,2.488-1.244,4.976-1.244S21.9,35.83,24.391,35.83c1.069,0,1.865-1.489,2.436-3.39,2.429,1.559,3.286,4.634,6.536,4.634,2.339,0,3.277-2.467,3.461-3.926a.932.932,0,0,0-.8-1.041ZM14.355,18.4a2.719,2.719,0,0,1-2.668-.056,1.788,1.788,0,0,1-.894-2.1,2.719,2.719,0,0,1,2.668.056A1.788,1.788,0,0,1,14.355,18.4Zm4.127,1.878h1.866a.933.933,0,1,1,0,1.866H18.482a.933.933,0,0,1,0-1.866Zm0,3.732h1.866a.933.933,0,0,1,0,1.866H18.482a.933.933,0,0,1,0-1.866Zm3.732,5.6a2.46,2.46,0,0,0-2.079.9.931.931,0,0,1-1.44,0,2.46,2.46,0,0,0-2.079-.9.933.933,0,1,1,0-1.866,4.467,4.467,0,0,1,2.8.883,4.467,4.467,0,0,1,2.8-.883.933.933,0,1,1,0,1.866ZM24.475,18.4a1.786,1.786,0,0,1,.894-2.1,2.719,2.719,0,0,1,2.668-.056,1.786,1.786,0,0,1-.894,2.1A2.713,2.713,0,0,1,24.475,18.4Z" transform="translate(-2 -0.999)" fill="#fff"/>
</svg>
