<svg xmlns="http://www.w3.org/2000/svg" width="35.312" height="41.651" viewBox="0 0 35.312 41.651">
  <g id="Group_395" data-name="Group 395" transform="translate(0 0)">
    <path id="Path_229" data-name="Path 229" d="M36.886,200.923l-13.821-16.7a3.262,3.262,0,0,0-5.147-.06L3.707,200.531a4.856,4.856,0,0,0-.072,6.072l13.822,16.7a3.263,3.263,0,0,0,5.147.062l14.21-16.367A4.856,4.856,0,0,0,36.886,200.923Z" transform="translate(-2.605 -182.937)" fill="#ed4a3e"/>
    <path id="Path_230" data-name="Path 230" d="M18.64,206.6a4.856,4.856,0,0,1,.072-6.072l9.138-10.524-4.786-5.781a3.262,3.262,0,0,0-5.147-.06L3.706,200.532a4.856,4.856,0,0,0-.072,6.072l13.822,16.7a3.263,3.263,0,0,0,5.147.062l5.072-5.842Z" transform="translate(-2.604 -182.938)" fill="#d63322"/>
  </g>
</svg>
