<svg xmlns="http://www.w3.org/2000/svg" width="16.572" height="13.982" viewBox="0 0 16.572 13.982">
  <g id="Group_308" data-name="Group 308" transform="translate(-11737.568 3097.5)">
    <path id="Path_223" data-name="Path 223" d="M192.391,1.249a4.44,4.44,0,0,0-6.277.1l-.656.678-.656-.678a4.439,4.439,0,1,0-6.381,6.174l5.639,5.829a1.9,1.9,0,0,0,2.9-.109l5.535-5.72A4.44,4.44,0,0,0,192.391,1.249Z" transform="translate(11560.396 -3097.501)" fill="#ed4a3e"/>
    <path id="Path_224" data-name="Path 224" d="M187.515,11.052l-5.639-5.829a4.44,4.44,0,0,1-.909-4.792,4.438,4.438,0,0,0-2.544,7.478l5.639,5.829a1.9,1.9,0,0,0,2.9-.109l1.89-1.953A2.17,2.17,0,0,1,187.515,11.052Z" transform="translate(11560.395 -3097.883)" fill="#d63322"/>
  </g>
</svg>
