<svg xmlns="http://www.w3.org/2000/svg" width="12.592" height="14.277" viewBox="0 0 12.592 14.277">
  <g id="Group_309" data-name="Group 309" transform="translate(-11935.436 2922.905)">
    <path id="Path_231" data-name="Path 231" d="M384.452,178.775a3.251,3.251,0,1,0-6.231,0,3.25,3.25,0,1,0,1.908,5.93l.287,0a10.056,10.056,0,0,1-.7,3.525h0s-.049.126-.049.129c-.055.188-.074.516.453.516h2.427c.527,0,.507-.328.453-.516-.016-.04-.033-.082-.049-.128h0a14.249,14.249,0,0,1-.742-3.192.537.537,0,0,1,.057-.353l.24,0a3.25,3.25,0,1,0,1.943-5.906Zm-4.167,5.815.026-.022.06.078A.233.233,0,0,0,380.285,184.591Zm2.022.05.059-.067.021.018A.235.235,0,0,0,382.307,184.64Z" transform="translate(11560.396 -3097.501)" fill="#575b70"/>
    <path id="Path_232" data-name="Path 232" d="M382.955,188.229h0a14.487,14.487,0,0,1-.744-3.244,4.9,4.9,0,0,1,2.224-8.125,3.251,3.251,0,0,0-6.213,1.917,3.25,3.25,0,1,0,1.908,5.93l.287,0a9.948,9.948,0,0,1-.7,3.525s-.049.126-.049.129c-.055.188-.074.516.453.516h2.427c.527,0,.507-.328.453-.516C382.988,188.316,382.971,188.274,382.955,188.229Zm-2.669-3.638.026-.022.06.078A.234.234,0,0,0,380.286,184.59Z" transform="translate(11560.396 -3097.501)" fill="#414356"/>
  </g>
</svg>
