<svg xmlns="http://www.w3.org/2000/svg" width="40.051" height="44.082" viewBox="0 0 40.051 44.082">
  <g id="Group_397" data-name="Group 397" transform="translate(0 0)">
    <path id="Path_227" data-name="Path 227" d="M214.741,365.493c-14.536-15.032-13.7-14.229-14.485-14.769-2.179-1.438-4.344-.91-6.146.95-13.006,13.443-10.681,11.04-13.37,13.819A10.719,10.719,0,0,0,193.2,382.557v0c.779-.458,2.306-.935,2.136.867a40.023,40.023,0,0,1-2.039,8.782h0s0,0,0,0c-.047.124-.092.241-.136.352-.151.518-.205,1.42,1.246,1.42h6.679c1.451,0,1.4-.9,1.245-1.42-.044-.112-.089-.228-.135-.352,0,0,0,0,0,0h0a39.995,39.995,0,0,1-2.04-8.782c-.137-1.452.8-1.555,2.081-.9.035.018.055.031.055.031v0a10.9,10.9,0,0,0,3.08.981C215.613,385.116,221.816,372.805,214.741,365.493Z" transform="translate(-177.723 -349.901)" fill="#575b70"/>
    <path id="Path_228" data-name="Path 228" d="M202.19,392.212s0,0,0,0a37.89,37.89,0,0,1-2.05-9.126,10.729,10.729,0,0,1-2.869-17.03l9.006-9.309c-5.3-5.474-5.249-5.492-6.021-6.02-2.179-1.438-4.344-.91-6.146.95-13.006,13.443-10.681,11.04-13.37,13.819A10.719,10.719,0,0,0,193.2,382.559v0c.779-.458,2.306-.935,2.136.867a40.024,40.024,0,0,1-2.039,8.782s0,0,0,0c-.047.124-.092.241-.136.352-.151.518-.205,1.42,1.246,1.42h6.679c1.451,0,1.4-.9,1.245-1.42C202.282,392.452,202.237,392.336,202.19,392.212Z" transform="translate(-177.723 -349.902)" fill="#414356"/>
  </g>
</svg>
