<svg id="tiger_1_" data-name="tiger (1)" xmlns="http://www.w3.org/2000/svg" width="35.8" height="35.795" viewBox="0 0 35.8 35.795">
  <path id="Path_13" data-name="Path 13" d="M38.972,24.5a2.157,2.157,0,0,0-1.915,1.762,5.851,5.851,0,0,0,2.163.411c.608,0,1.636-.269,1.636-1.278a2.923,2.923,0,0,0-.187-1.064Z" transform="translate(-14.646 -10.059)" fill="#fff"/>
  <path id="Path_14" data-name="Path 14" d="M48.522,6.216l-1.7,1.516a.972.972,0,0,0,.1,1.528,21.619,21.619,0,0,1,3.145,2.621l1.9-2.924a3.724,3.724,0,0,0,.3-3.464A3.775,3.775,0,0,0,48.522,6.216Z" transform="translate(-18.051 -3.184)" fill="#fff"/>
  <path id="Path_15" data-name="Path 15" d="M18.884,24.5l-1.7-.169A2.923,2.923,0,0,0,17,25.4c0,1.009,1.029,1.278,1.636,1.278a5.851,5.851,0,0,0,2.163-.411A2.157,2.157,0,0,0,18.884,24.5Z" transform="translate(-7.41 -10.059)" fill="#fff"/>
  <path id="Path_16" data-name="Path 16" d="M4.613,8.958l1.9,2.925a21.634,21.634,0,0,1,3.15-2.627.972.972,0,0,0,.092-1.525l-1.7-1.513a3.777,3.777,0,0,0-3.745-.724,3.724,3.724,0,0,0,.3,3.464Z" transform="translate(-2.727 -3.185)" fill="#fff"/>
  <path id="Path_17" data-name="Path 17" d="M25.323,39.408a5.647,5.647,0,0,1,2.757,1.286.168.168,0,0,0,.233,0,5.673,5.673,0,0,1,2.768-1.287.362.362,0,0,0,.306-.32.439.439,0,0,0-.231-.464h0A6.362,6.362,0,0,0,28.2,38a6.37,6.37,0,0,0-2.955.623.443.443,0,0,0-.21.218.077.077,0,0,1-.008.026.465.465,0,0,0-.025.221.361.361,0,0,0,.318.321Z" transform="translate(-10.297 -14.988)" fill="#fff"/>
  <path id="Path_18" data-name="Path 18" d="M30.283,2.951,26.939,5.93a.639.639,0,0,1-.71.1,14.391,14.391,0,0,0-12.663,0,.639.639,0,0,1-.71-.1L9.513,2.952a3.719,3.719,0,0,0-4.822-.12A5.046,5.046,0,0,1,8.178,4.084L9.878,5.6a2.25,2.25,0,0,1-.222,3.534,20.694,20.694,0,0,0-3.493,3.02A17.537,17.537,0,0,0,2,23.735c0,.114,0,.227.006.339a2.991,2.991,0,0,1,.967-.895.639.639,0,0,1,.933.653,15.439,15.439,0,0,0,0,5.439,2.192,2.192,0,0,1,.2-.235.639.639,0,0,1,1.066.276,11.261,11.261,0,0,0,3.713,5.345,2.615,2.615,0,0,1,.217-.683.639.639,0,0,1,.476-.344.648.648,0,0,1,.555.192,6.605,6.605,0,0,0,4.014,1.386V33.783a4.39,4.39,0,0,1-1.907-1.143,4.475,4.475,0,0,1-1.289-3.152c0-2.741,2.394-4.05,4.756-4.393a1.743,1.743,0,0,1,.656-.594,7.644,7.644,0,0,1,3.543-.766,7.639,7.639,0,0,1,3.542.767,1.7,1.7,0,0,1,.645.592,7.99,7.99,0,0,1,2.322.7,4,4,0,0,1,2.434,3.691,4.475,4.475,0,0,1-1.289,3.152,4.386,4.386,0,0,1-1.907,1.142v1.423a6.6,6.6,0,0,0,4.018-1.39.651.651,0,0,1,.555-.182.639.639,0,0,1,.472.341,2.632,2.632,0,0,1,.218.683,11.187,11.187,0,0,0,3.711-5.344.639.639,0,0,1,1.067-.277,2.072,2.072,0,0,1,.2.236A15.317,15.317,0,0,0,35.9,23.89a.671.671,0,0,1,.256-.646.639.639,0,0,1,.671-.064,3,3,0,0,1,.967.895c0-.113,0-.226,0-.339a17.537,17.537,0,0,0-4.164-11.584,20.676,20.676,0,0,0-3.488-3.017A2.25,2.25,0,0,1,29.917,5.6l1.7-1.516a5.045,5.045,0,0,1,3.487-1.248,3.72,3.72,0,0,0-4.822.122ZM7.458,27.469a.639.639,0,0,1-.883-.192c-2.6-4.054-.757-9.292-.676-9.512a.639.639,0,0,1,1.2.433c-.017.049-1.7,4.871.552,8.388a.639.639,0,0,1-.194.883Zm24.686-.883c2.255-3.516.569-8.339.552-8.388a.639.639,0,0,1,1.2-.433c.08.221,1.918,5.457-.678,9.511a.639.639,0,0,1-1.076-.69ZM15.837,7.153a12.471,12.471,0,0,1,8.118,0,.639.639,0,0,1-.447,1.2,11.187,11.187,0,0,0-7.223,0,.664.664,0,0,1-.222.042.639.639,0,0,1-.225-1.238Zm-1.978,3.223A14.8,14.8,0,0,1,19.9,9.033a14.8,14.8,0,0,1,6.039,1.346.639.639,0,0,1-.571,1.144A13.727,13.727,0,0,0,19.9,10.311a13.727,13.727,0,0,0-5.468,1.215.639.639,0,0,1-.571-1.144Zm10.473,2.715a.639.639,0,0,1-.823.375,11.187,11.187,0,0,0-7.223,0,.664.664,0,0,1-.224.04.639.639,0,0,1-.225-1.238,12.471,12.471,0,0,1,8.118,0,.639.639,0,0,1,.377.823ZM10.761,24.826a.639.639,0,0,1-.9,0,5.621,5.621,0,0,1-1.466-3.648.639.639,0,1,1,1.278,0,4.377,4.377,0,0,0,1.091,2.749A.639.639,0,0,1,10.761,24.826ZM16.7,19.9a.639.639,0,1,1-1.278,0v-.345a7.193,7.193,0,0,1-2.2.345,2.676,2.676,0,0,1-2.915-2.557,4.347,4.347,0,0,1,.172-1.235,2.046,2.046,0,0,1-1.45-1.961.639.639,0,0,1,1.278,0,.772.772,0,0,0,.7.767l2.593.26a3.433,3.433,0,0,1,3.1,3.43Zm5.122-3.835c-.218.007-1.286.132-1.286,1.918a.639.639,0,0,1-1.278,0c0-1.9-1.226-1.918-1.278-1.918a.639.639,0,0,1,0-1.278,2.484,2.484,0,0,1,1.918.987,2.484,2.484,0,0,1,1.918-.987.639.639,0,1,1,.008,1.278ZM31.4,21.178a5.621,5.621,0,0,1-1.466,3.648.639.639,0,1,1-.9-.9,4.377,4.377,0,0,0,1.091-2.744.639.639,0,0,1,.639-.639h0A.639.639,0,0,1,31.4,21.178Zm-1.918-7.032a.639.639,0,0,1,1.278,0,2.046,2.046,0,0,1-1.45,1.961,4.347,4.347,0,0,1,.172,1.235A2.676,2.676,0,0,1,26.571,19.9a7.192,7.192,0,0,1-2.2-.344V19.9a.639.639,0,1,1-1.278,0V18.6a3.433,3.433,0,0,1,3.1-3.428l2.593-.262a.772.772,0,0,0,.7-.767Z" transform="translate(-1.998 -2.003)" fill="#fff"/>
  <path id="Path_19" data-name="Path 19" d="M21.247,40.218C20,40.473,18,41.2,18,43.275a3.205,3.205,0,0,0,.923,2.256,3.094,3.094,0,0,0,2.971.852,3.224,3.224,0,0,0,1.268-.645L24.7,44.508a1.542,1.542,0,0,1,1.934,0l1.541,1.231a3.222,3.222,0,0,0,1.269.645,3.087,3.087,0,0,0,2.971-.852,3.205,3.205,0,0,0,.923-2.256,2.721,2.721,0,0,0-1.726-2.548,6.438,6.438,0,0,0-1.523-.507,1.636,1.636,0,0,1-1.3,1.246,4.418,4.418,0,0,0-2.139.968,1.439,1.439,0,0,1-1.972,0,4.385,4.385,0,0,0-2.126-.968A1.646,1.646,0,0,1,21.247,40.218Z" transform="translate(-7.771 -15.789)" fill="#fff"/>
  <path id="Path_20" data-name="Path 20" d="M29.185,49.688l-1.541-1.231a.269.269,0,0,0-.339,0l-1.541,1.231a4.488,4.488,0,0,1-1.776.891A4.578,4.578,0,0,1,23,50.69v1.679a1.268,1.268,0,0,0,.456.974l1.055.889a1.266,1.266,0,0,0,.822.3h4.283a1.263,1.263,0,0,0,.82-.3l1.056-.89a1.27,1.27,0,0,0,.457-.975V50.7a4.539,4.539,0,0,1-.988-.116A4.485,4.485,0,0,1,29.185,49.688Z" transform="translate(-9.575 -18.74)" fill="#fff"/>
</svg>
