<svg xmlns="http://www.w3.org/2000/svg" width="90.194" height="90.181" viewBox="0 0 90.194 90.181">
  <g id="tiger_1_" data-name="tiger (1)" opacity="0.105">
    <path id="Path_13" data-name="Path 13" d="M41.88,24.762a5.434,5.434,0,0,0-4.823,4.44,14.741,14.741,0,0,0,5.448,1.036c1.532,0,4.123-.678,4.123-3.221a7.363,7.363,0,0,0-.472-2.681Z" transform="translate(19.405 11.63)" fill="#2dafeb"/>
    <path id="Path_14" data-name="Path 14" d="M51.6,7.642l-4.285,3.818a2.45,2.45,0,0,0,.245,3.849,54.467,54.467,0,0,1,7.923,6.6l4.789-7.368a9.383,9.383,0,0,0,.763-8.727A9.511,9.511,0,0,0,51.6,7.642Z" transform="translate(25.167 -0.004)" fill="#2dafeb"/>
    <path id="Path_15" data-name="Path 15" d="M21.748,24.762l-4.276-.427A7.363,7.363,0,0,0,17,27.016c0,2.543,2.591,3.221,4.123,3.221A14.741,14.741,0,0,0,26.571,29.2a5.434,5.434,0,0,0-4.823-4.44Z" transform="translate(7.161 11.63)" fill="#2dafeb"/>
    <path id="Path_16" data-name="Path 16" d="M5.515,14.547l4.791,7.369A54.5,54.5,0,0,1,18.241,15.3a2.45,2.45,0,0,0,.232-3.843L14.191,7.643A9.515,9.515,0,0,0,4.755,5.82a9.381,9.381,0,0,0,.76,8.727Z" transform="translate(-0.764 -0.002)" fill="#2dafeb"/>
    <path id="Path_17" data-name="Path 17" d="M25.812,41.554a14.227,14.227,0,0,1,6.946,3.24.424.424,0,0,0,.588,0,14.291,14.291,0,0,1,6.973-3.242.913.913,0,0,0,.771-.805,1.1,1.1,0,0,0-.583-1.169h0A16.027,16.027,0,0,0,33.066,38a16.048,16.048,0,0,0-7.444,1.57,1.116,1.116,0,0,0-.528.549.194.194,0,0,1-.019.066,1.171,1.171,0,0,0-.063.557.91.91,0,0,0,.8.808Z" transform="translate(12.046 19.969)" fill="#2dafeb"/>
    <path id="Path_18" data-name="Path 18" d="M73.258,4.391l-8.424,7.5a1.61,1.61,0,0,1-1.788.242,36.256,36.256,0,0,0-31.9,0,1.61,1.61,0,0,1-1.788-.242l-8.423-7.5a9.37,9.37,0,0,0-12.149-.3,12.713,12.713,0,0,1,8.785,3.155l4.282,3.817a5.669,5.669,0,0,1-.559,8.9,52.135,52.135,0,0,0-8.8,7.609A44.181,44.181,0,0,0,2,56.754c0,.288,0,.572.014.854a7.535,7.535,0,0,1,2.435-2.255A1.61,1.61,0,0,1,6.8,57a38.9,38.9,0,0,0-.008,13.7A5.524,5.524,0,0,1,7.3,70.11a1.61,1.61,0,0,1,2.686.7A28.372,28.372,0,0,0,19.345,84.27a6.587,6.587,0,0,1,.546-1.72,1.61,1.61,0,0,1,1.2-.866,1.631,1.631,0,0,1,1.4.483c.023.023,3.078,2.987,10.114,3.491v-3.59a11.061,11.061,0,0,1-4.8-2.879,11.273,11.273,0,0,1-3.248-7.941c0-6.906,6.031-10.2,11.982-11.067a4.39,4.39,0,0,1,1.654-1.5,19.258,19.258,0,0,1,8.925-1.931,19.245,19.245,0,0,1,8.924,1.933,4.3,4.3,0,0,1,1.625,1.491,20.131,20.131,0,0,1,5.851,1.772,10.069,10.069,0,0,1,6.133,9.3,11.273,11.273,0,0,1-3.248,7.941,11.051,11.051,0,0,1-4.8,2.878v3.585c7.036-.5,10.091-3.471,10.123-3.5a1.641,1.641,0,0,1,1.4-.459,1.61,1.61,0,0,1,1.188.858,6.632,6.632,0,0,1,.549,1.72A28.183,28.183,0,0,0,84.2,70.807a1.61,1.61,0,0,1,2.688-.7,5.221,5.221,0,0,1,.512.594,38.588,38.588,0,0,0,.016-13.56,1.691,1.691,0,0,1,.644-1.628,1.61,1.61,0,0,1,1.689-.161,7.569,7.569,0,0,1,2.437,2.255c0-.285,0-.569,0-.855A44.181,44.181,0,0,0,81.7,27.569a52.089,52.089,0,0,0-8.788-7.6,5.669,5.669,0,0,1-.572-8.911l4.285-3.82a12.711,12.711,0,0,1,8.785-3.145A9.371,9.371,0,0,0,73.258,4.4Zm-57.5,61.771a1.61,1.61,0,0,1-2.226-.483c-6.547-10.214-1.908-23.41-1.7-23.965a1.61,1.61,0,0,1,3.029,1.09c-.043.122-4.29,12.272,1.39,21.132a1.61,1.61,0,0,1-.49,2.226Zm62.193-2.226c5.68-8.858,1.433-21.01,1.39-21.132a1.61,1.61,0,0,1,3.029-1.09c.2.556,4.831,13.747-1.707,23.962a1.611,1.611,0,0,1-2.712-1.739ZM36.865,14.979a31.42,31.42,0,0,1,20.453,0A1.611,1.611,0,0,1,56.19,18a28.183,28.183,0,0,0-18.2,0,1.672,1.672,0,0,1-.56.106,1.61,1.61,0,0,1-.567-3.119ZM31.88,23.1a37.29,37.29,0,0,1,15.214-3.385A37.29,37.29,0,0,1,62.308,23.1a1.611,1.611,0,0,1-1.438,2.883,34.583,34.583,0,0,0-13.776-3.052,34.583,34.583,0,0,0-13.776,3.06,1.611,1.611,0,0,1-1.438-2.883ZM58.266,29.94a1.61,1.61,0,0,1-2.073.945,28.183,28.183,0,0,0-18.2,0,1.672,1.672,0,0,1-.564.1,1.61,1.61,0,0,1-.567-3.119,31.42,31.42,0,0,1,20.453,0,1.61,1.61,0,0,1,.949,2.073ZM24.076,59.5a1.61,1.61,0,0,1-2.277,0,14.162,14.162,0,0,1-3.693-9.191,1.61,1.61,0,1,1,3.221,0,11.028,11.028,0,0,0,2.749,6.925,1.61,1.61,0,0,1,0,2.266ZM39.042,47.091a1.61,1.61,0,0,1-3.221,0v-.868a18.122,18.122,0,0,1-5.54.868c-3.649,0-7.344-2.213-7.344-6.442a10.951,10.951,0,0,1,.433-3.111A5.153,5.153,0,0,1,19.717,32.6a1.61,1.61,0,0,1,3.221,0,1.944,1.944,0,0,0,1.755,1.933l6.534.654a8.65,8.65,0,0,1,7.816,8.642Zm12.9-9.663c-.549.018-3.24.333-3.24,4.831a1.61,1.61,0,1,1-3.221,0c0-4.777-3.089-4.831-3.221-4.831a1.61,1.61,0,0,1,0-3.221,6.258,6.258,0,0,1,4.831,2.487,6.258,6.258,0,0,1,4.831-2.487,1.61,1.61,0,1,1,.019,3.221ZM76.083,50.312A14.162,14.162,0,0,1,72.39,59.5a1.61,1.61,0,1,1-2.277-2.277,11.027,11.027,0,0,0,2.749-6.914,1.61,1.61,0,0,1,1.61-1.61h0A1.61,1.61,0,0,1,76.083,50.312ZM71.251,32.6a1.61,1.61,0,0,1,3.221,0,5.153,5.153,0,0,1-3.654,4.941,10.951,10.951,0,0,1,.433,3.111c0,4.229-3.694,6.442-7.344,6.442a18.12,18.12,0,0,1-5.539-.868v.868a1.61,1.61,0,1,1-3.221,0V43.825a8.65,8.65,0,0,1,7.816-8.635l6.534-.66A1.944,1.944,0,0,0,71.251,32.6Z" transform="translate(-1.998 -2.003)" fill="#2dafeb"/>
    <path id="Path_19" data-name="Path 19" d="M26.18,40.218c-3.152.643-8.18,2.483-8.18,7.7A8.075,8.075,0,0,0,20.326,53.6a7.8,7.8,0,0,0,7.485,2.147,8.122,8.122,0,0,0,3.2-1.625l3.883-3.1a3.886,3.886,0,0,1,4.873,0l3.883,3.1a8.117,8.117,0,0,0,3.2,1.625A7.778,7.778,0,0,0,54.326,53.6a8.075,8.075,0,0,0,2.326-5.685A6.856,6.856,0,0,0,52.3,41.5a16.221,16.221,0,0,0-3.836-1.277A4.123,4.123,0,0,1,45.2,43.362a11.13,11.13,0,0,0-5.389,2.44,3.625,3.625,0,0,1-4.968,0,11.046,11.046,0,0,0-5.356-2.44A4.147,4.147,0,0,1,26.18,40.218Z" transform="translate(7.771 21.326)" fill="#2dafeb"/>
    <path id="Path_20" data-name="Path 20" d="M38.583,51.65l-3.883-3.1a.678.678,0,0,0-.854,0l-3.883,3.1A11.305,11.305,0,0,1,25.49,53.9a11.534,11.534,0,0,1-2.49.279V58.4a3.2,3.2,0,0,0,1.148,2.454l2.659,2.24a3.19,3.19,0,0,0,2.071.765h10.79a3.183,3.183,0,0,0,2.065-.761l2.662-2.241A3.2,3.2,0,0,0,45.546,58.4V54.188a11.433,11.433,0,0,1-2.488-.293A11.3,11.3,0,0,1,38.583,51.65Z" transform="translate(10.824 26.319)" fill="#2dafeb"/>
  </g>
</svg>
