<svg xmlns="http://www.w3.org/2000/svg" width="39" height="39" viewBox="0 0 39 39"><g transform="translate(-723 -924)"><g transform="translate(723 924)" fill="#d1c333" stroke="#fff" stroke-width="1"><circle cx="19.5" cy="19.5" r="19.5" stroke="none"/><circle cx="19.5" cy="19.5" r="19" fill="none"/></g><g transform="translate(730.692 932.029)"><g transform="translate(0)"><path d="M18.109,59.6a1.668,1.668,0,0,0-2.522,0c-.59.585-1.179,1.169-1.759,1.764a.348.348,0,0,1-.486.089c-.382-.208-.788-.377-1.155-.6a18.293,18.293,0,0,1-4.41-4.014A10.448,10.448,0,0,1,6.2,54.307a.363.363,0,0,1,.089-.466c.59-.57,1.164-1.155,1.744-1.739a1.675,1.675,0,0,0,0-2.582c-.461-.466-.922-.922-1.382-1.387s-.946-.956-1.427-1.427a1.679,1.679,0,0,0-2.522,0C2.1,47.3,1.529,47.895.925,48.469a2.871,2.871,0,0,0-.9,1.937A8.209,8.209,0,0,0,.657,53.94a21.468,21.468,0,0,0,3.81,6.347,23.58,23.58,0,0,0,7.809,6.11A11.294,11.294,0,0,0,16.6,67.656a3.17,3.17,0,0,0,2.72-1.036c.505-.565,1.075-1.08,1.61-1.62a1.686,1.686,0,0,0,.01-2.567Q19.531,61.013,18.109,59.6Z" transform="translate(-0.006 -43.851)"/><path d="M243.225,103.046l1.828-.312A8.207,8.207,0,0,0,238.112,96l-.258,1.838a6.343,6.343,0,0,1,5.371,5.208Z" transform="translate(-226.068 -91.243)"/><path d="M250.742,3.855A13.482,13.482,0,0,0,243.012,0l-.258,1.838a11.764,11.764,0,0,1,9.955,9.648l1.828-.312A13.581,13.581,0,0,0,250.742,3.855Z" transform="translate(-230.726)"/></g></g></g></svg>