<svg xmlns="http://www.w3.org/2000/svg" xmlns:xlink="http://www.w3.org/1999/xlink" width="79.485" height="79.107" viewBox="0 0 79.485 79.107"><defs><filter id="a" x="0" y="0" width="79.485" height="79.107" filterUnits="userSpaceOnUse"><feOffset dy="3" input="SourceAlpha"/><feGaussianBlur stdDeviation="3" result="b"/><feFlood flood-opacity="0.161"/><feComposite operator="in" in2="b"/><feComposite in="SourceGraphic"/></filter></defs><g transform="translate(9 6)"><g transform="matrix(1, 0, 0, 1, -9, -6)" filter="url(#a)"><path d="M61.485,30.74A30.748,30.748,0,0,1,35.546,61.107V39.626h7.163l1.363-8.886H35.546V24.974c0-2.432,1.191-4.8,5.01-4.8h3.876V12.608a47.289,47.289,0,0,0-6.882-.6c-7.022,0-11.611,4.256-11.611,11.96V30.74H18.133v8.886h7.806V61.107A30.742,30.742,0,1,1,61.485,30.74Z" transform="translate(9 6)" fill="#1877f2"/></g><path d="M175.872,127.953l1.379-8.994h-8.629v-5.836c0-2.46,1.205-4.859,5.07-4.859h3.923v-7.657a47.845,47.845,0,0,0-6.965-.608c-7.107,0-11.752,4.307-11.752,12.1v6.855H151v8.994h7.9v21.741a31.443,31.443,0,0,0,9.723,0V127.953Z" transform="translate(-133.03 -88.587)" fill="#fff"/></g></svg>