<svg xmlns="http://www.w3.org/2000/svg" xmlns:xlink="http://www.w3.org/1999/xlink" width="80.039" height="80.039" viewBox="0 0 80.039 80.039"><defs><linearGradient id="a" x1="-3.869" y1="12.192" x2="-3.869" y2="12.191" gradientUnits="objectBoundingBox"><stop offset="0" stop-color="#2aabee"/><stop offset="1" stop-color="#229ed9"/></linearGradient><filter id="b" x="0" y="0" width="80.039" height="80.039" filterUnits="userSpaceOnUse"><feOffset dy="3" input="SourceAlpha"/><feGaussianBlur stdDeviation="3" result="c"/><feFlood flood-opacity="0.161"/><feComposite operator="in" in2="c"/><feComposite in="SourceGraphic"/></filter></defs><g transform="translate(9 6)"><g transform="matrix(1, 0, 0, 1, -9, -6)" filter="url(#b)"><ellipse cx="31.019" cy="31.019" rx="31.019" ry="31.019" transform="translate(9 6)" fill="url(#a)"/></g><path d="M99.092,166.173q13.612-5.93,18.153-7.819c8.645-3.6,10.441-4.22,11.612-4.241a2.047,2.047,0,0,1,1.206.362,2.463,2.463,0,0,1,.5,2.068c-.469,4.922-2.5,16.867-3.527,22.38-.436,2.333-1.3,3.115-2.127,3.191-1.808.166-3.18-1.195-4.931-2.342-2.74-1.8-4.287-2.914-6.947-4.666-3.073-2.025-1.081-3.138.67-4.958.458-.476,8.423-7.721,8.577-8.378a.636.636,0,0,0-.145-.55.717.717,0,0,0-.644-.062q-.412.094-13.13,8.679a5.91,5.91,0,0,1-3.376,1.247,22.21,22.21,0,0,1-4.839-1.145c-1.949-.634-3.5-.969-3.364-2.045q.105-.841,2.316-1.72Z" transform="translate(-85.001 -135.591)" fill="#fff" fill-rule="evenodd"/></g></svg>