<svg id="account" xmlns="http://www.w3.org/2000/svg" width="26.333" height="26.333" viewBox="0 0 26.333 26.333">
  <defs>
    <style>
      .cls-1 {
        fill: #eca84b;
      }

      .cls-2 {
        fill: none;
      }
    </style>
  </defs>
  <path id="Path_102" data-name="Path 102" class="cls-1" d="M14.972,4A10.972,10.972,0,1,0,25.944,14.972,10.969,10.969,0,0,0,14.972,4Zm0,3.292a3.292,3.292,0,1,1-3.292,3.292A3.294,3.294,0,0,1,14.972,7.292Zm0,15.58a7.9,7.9,0,0,1-6.583-3.533c.027-2.178,4.394-3.379,6.583-3.379s6.55,1.2,6.583,3.379A7.9,7.9,0,0,1,14.972,22.872Z" transform="translate(-1.806 -1.806)"/>
  <path id="Path_103" data-name="Path 103" class="cls-2" d="M0,0H26.333V26.333H0Z"/>
</svg>
