<svg xmlns="http://www.w3.org/2000/svg" width="50" height="50" viewBox="0 0 50 50">
  <g id="Group_1177" data-name="Group 1177" transform="translate(-849 -158.935)">
    <g id="Ellipse_8" data-name="Ellipse 8" transform="translate(849 158.935)" fill="#fff" stroke="#cdd2de" stroke-width="1">
      <circle cx="25" cy="25" r="25" stroke="none"/>
      <circle cx="25" cy="25" r="24.5" fill="none"/>
    </g>
    <g id="announcement" transform="translate(860.115 172.125)">
      <path id="Path_446" data-name="Path 446" d="M21.154,4.962a2.273,2.273,0,0,0-3.6-1.2L7.711,11.5a.758.758,0,0,0-.264.792l2.015,7.518a.755.755,0,0,0,.623.554l12.392,1.778A2.274,2.274,0,0,0,25,19.3c-.969-3.613-2.875-10.727-3.842-14.34Zm-1.464.392c.968,3.613,2.874,10.727,3.842,14.34a.758.758,0,0,1-.84.946L10.8,18.934,9.041,12.382,18.49,4.954a.758.758,0,0,1,1.2.4Z" transform="translate(-2.5 -3.277)" fill="#8f939b" fill-rule="evenodd"/>
      <path id="Path_447" data-name="Path 447" d="M8.962,11.816a.759.759,0,0,0-.929-.537L4.61,12.2a2.78,2.78,0,0,0-1.965,3.4l.968,3.615a2.781,2.781,0,0,0,3.4,1.964l3.423-.917a.756.756,0,0,0,.536-.928ZM7.694,12.939l1.622,6.054-2.692.721a1.264,1.264,0,0,1-1.547-.893l-.968-3.614A1.264,1.264,0,0,1,5,13.661Z" transform="translate(-2.55 -3.194)" fill="#8f939b" fill-rule="evenodd"/>
      <path id="Path_448" data-name="Path 448" d="M11.517,18.88a.757.757,0,0,0-.84.946l1,3.735a.758.758,0,0,0,.865.55c.1-.017.2-.039.3-.067a3.561,3.561,0,0,0,2.577-4.084.758.758,0,0,0-.638-.611Zm1.415,3.5-.493-1.84,1.521.218A2.045,2.045,0,0,1,12.931,22.383Z" transform="translate(-2.466 -3.115)" fill="#8f939b" fill-rule="evenodd"/>
      <path id="Path_449" data-name="Path 449" d="M12.18,19.436a.755.755,0,0,0-.623-.554l-1.249-.18a.771.771,0,0,0-.3.018l-2.639.707a.757.757,0,0,0-.507,1.012s1.711,4.294,2.581,6.481a2.267,2.267,0,0,0,2.694,1.351,2.334,2.334,0,0,0,1.651-2.858Zm-1.334.875,1.472,5.494a.819.819,0,0,1-.579,1,.75.75,0,0,1-.893-.448L8.58,20.671l1.666-.447Z" transform="translate(-2.506 -3.117)" fill="#8f939b" fill-rule="evenodd"/>
      <path id="Path_450" data-name="Path 450" d="M28.852,9.943l-2.931.786a.757.757,0,1,0,.392,1.463l2.931-.785a.758.758,0,1,0-.392-1.464Z" transform="translate(-2.313 -3.208)" fill="#8f939b" fill-rule="evenodd"/>
      <path id="Path_451" data-name="Path 451" d="M25.93,4.5,23.491,6.3a.758.758,0,0,0,.9,1.219l2.439-1.8a.758.758,0,0,0-.9-1.219Z" transform="translate(-2.336 -3.266)" fill="#8f939b" fill-rule="evenodd"/>
      <path id="Path_452" data-name="Path 452" d="M29.535,16.107l-3.009-.391a.758.758,0,1,0-.195,1.5l3.009.39a.758.758,0,0,0,.2-1.5Z" transform="translate(-2.31 -3.148)" fill="#8f939b" fill-rule="evenodd"/>
    </g>
  </g>
</svg>
