<svg xmlns="http://www.w3.org/2000/svg" width="28" height="22" viewBox="0 0 28 22">
  <g id="benefit" transform="translate(-2 -5)">
    <path id="Path_4909" data-name="Path 4909" d="M20,20.99a2.066,2.066,0,0,0,1.972-1.652A2,2,0,0,0,20,17Zm-3.972-8.329A2,2,0,0,0,18,15V11.01A2.066,2.066,0,0,0,16.028,12.662Z" fill="#fff"/>
    <path id="Path_4910" data-name="Path 4910" d="M19,5A11,11,0,1,0,30,16,11.012,11.012,0,0,0,19,5Zm5,8.5a.5.5,0,0,1-.5.5h-1a.5.5,0,0,1-.5-.5V13a2,2,0,0,0-2-2v4.016A4.1,4.1,0,0,1,23.98,18.6,4,4,0,0,1,20,23v.5a.5.5,0,0,1-.5.5h-1a.5.5,0,0,1-.5-.5V23a4,4,0,0,1-4-4v-.5a.5.5,0,0,1,.5-.5h1a.5.5,0,0,1,.5.5V19a2,2,0,0,0,2,2V16.984A4.1,4.1,0,0,1,14.019,13.4,4,4,0,0,1,18,9V8.5a.5.5,0,0,1,.5-.5h1a.5.5,0,0,1,.5.5V9a4,4,0,0,1,4,4ZM2.5,17h3a.5.5,0,0,0,.5-.5v-1a.5.5,0,0,0-.5-.5h-3a.5.5,0,0,0-.5.5v1A.5.5,0,0,0,2.5,17Zm0-3H5.85a.5.5,0,0,0,.5-.5v-1a.5.5,0,0,0-.5-.5H2.5a.5.5,0,0,0-.5.5v1A.5.5,0,0,0,2.5,14Zm0-3H6.97a.5.5,0,0,0,.5-.5v-1a.5.5,0,0,0-.5-.5H2.5a.5.5,0,0,0-.5.5v1A.5.5,0,0,0,2.5,11Zm0-3H9.13a.5.5,0,0,0,.5-.5v-1a.5.5,0,0,0-.5-.5H2.5a.5.5,0,0,0-.5.5v1A.5.5,0,0,0,2.5,8ZM9.13,24H2.5a.5.5,0,0,0-.5.5v1a.5.5,0,0,0,.5.5H9.13a.5.5,0,0,0,.5-.5v-1A.5.5,0,0,0,9.13,24ZM2.5,23H6.97a.5.5,0,0,0,.5-.5v-1a.5.5,0,0,0-.5-.5H2.5a.5.5,0,0,0-.5.5v1A.5.5,0,0,0,2.5,23Zm0-3H5.85a.5.5,0,0,0,.5-.5v-1a.5.5,0,0,0-.5-.5H2.5a.5.5,0,0,0-.5.5v1A.5.5,0,0,0,2.5,20Z" fill="#fff"/>
  </g>
</svg>
