<svg xmlns="http://www.w3.org/2000/svg" width="40.174" height="26.28" viewBox="0 0 40.174 26.28">
  <g id="new-message_1_" data-name="new-message (1)" transform="translate(-2.5 -17.351)">
    <path id="Path_441" data-name="Path 441" d="M42.674,19.862V41.121a2.515,2.515,0,0,1-2.511,2.511H5.011A2.515,2.515,0,0,1,2.5,41.121V19.862a2.473,2.473,0,0,1,.092-.661,2.507,2.507,0,0,1,2.419-1.85H40.163a2.507,2.507,0,0,1,2.419,1.85A2.473,2.473,0,0,1,42.674,19.862Z" fill="#ffc536"/>
    <path id="Path_442" data-name="Path 442" d="M42.074,44.208a2.493,2.493,0,0,1-1.766.728H5.156a2.478,2.478,0,0,1-1.766-.728L16.12,31.8l6.612-6.445L29.344,31.8Z" transform="translate(-0.145 -1.304)" fill="#f2a916"/>
    <path id="Path_443" data-name="Path 443" d="M42.6,19.2,30.112,31.37l-4.879,4.754a3.759,3.759,0,0,1-5.256,0L15.1,31.37,2.61,19.2a2.507,2.507,0,0,1,2.419-1.85H40.181A2.507,2.507,0,0,1,42.6,19.2Z" transform="translate(-0.018)" opacity="0.1"/>
    <path id="Path_444" data-name="Path 444" d="M42.074,18.079,29.344,30.491l-4.859,4.736a2.511,2.511,0,0,1-3.505,0L16.12,30.491,3.39,18.079a2.513,2.513,0,0,1,1.766-.728H40.308A2.528,2.528,0,0,1,42.074,18.079Z" transform="translate(-0.145)" fill="#ffc536"/>
  </g>
</svg>
