<svg xmlns="http://www.w3.org/2000/svg" width="17.875" height="20.338" viewBox="0 0 17.875 20.338"><path d="M242.79,65.731a.6.6,0,1,1-.421,1.017.6.6,0,0,0-.843.843,1.781,1.781,0,0,0,.668.422v.7a.6.6,0,0,0,1.192,0v-.7a1.787,1.787,0,0,0-.6-3.472.6.6,0,1,1,.421-1.017.6.6,0,0,0,.843-.843,1.78,1.78,0,0,0-.668-.422v-.7a.6.6,0,0,0-1.192,0v.7a1.787,1.787,0,0,0,.6,3.472Z" transform="translate(-232.661 -58.542)" fill="#eca84b"/><path d="M218.749,331H211.6a.6.6,0,0,0,0,1.192h7.15a.6.6,0,0,0,0-1.192Z" transform="translate(-203.853 -317.852)" fill="#eca84b"/><path d="M218.749,391H211.6a.6.6,0,0,0,0,1.192h7.15a.6.6,0,0,0,0-1.192Z" transform="translate(-203.853 -375.469)" fill="#eca84b"/><path d="M45.9,0H32.79A1.789,1.789,0,0,0,31,1.787v8.38a.6.6,0,0,0,.6.6h1.787v8.974a.6.6,0,0,0,.93.5l1.454-.969,1.457.971a.6.6,0,0,0,.661,0l1.457-.971,1.457.971a.6.6,0,0,0,.661,0l1.457-.971,1.457.971a.6.6,0,0,0,.661,0l1.457-.971,1.454.969a.6.6,0,0,0,.93-.5V2.979A2.983,2.983,0,0,0,45.9,0ZM33.386,9.571H32.195V1.787a.6.6,0,0,1,1.192,0Zm14.3,9.057-.861-.574a.6.6,0,0,0-.661,0l-1.457.971-1.457-.971a.6.6,0,0,0-.661,0l-1.457.971-1.457-.971a.6.6,0,0,0-.661,0l-1.457.971L36.1,18.054a.6.6,0,0,0-.661,0l-.861.574V1.787a1.779,1.779,0,0,0-.1-.6H45.9a1.789,1.789,0,0,1,1.787,1.787V18.628Z" transform="translate(-31.003)" fill="#eca84b"/><circle cx="0.568" cy="0.568" r="0.568" transform="translate(4.803 15.505)" fill="#eca84b"/><circle cx="0.568" cy="0.568" r="0.568" transform="translate(4.803 13.232)" fill="#eca84b"/></svg>