<svg id="coin-stack" xmlns="http://www.w3.org/2000/svg" width="26.908" height="23.909" viewBox="0 0 26.908 23.909">
  <defs>
    <style>
      .cls-1 {
        fill: #ffdb2c;
      }
    </style>
  </defs>
  <g id="Group_128" data-name="Group 128">
    <path id="Path_90" data-name="Path 90" class="cls-1" d="M7.819,119.87A16.761,16.761,0,0,0,10,119.73v-7.581a16.77,16.77,0,0,0-2.179-.14C3.5,112.009,0,113.6,0,115.555v.769C0,118.282,3.5,119.87,7.819,119.87Z" transform="translate(-0.001 -106.004)"/>
    <path id="Path_91" data-name="Path 91" class="cls-1" d="M7.819,218.215a16.783,16.783,0,0,0,2.179-.14v-2.222a16.769,16.769,0,0,1-2.179.14c-3.769,0-6.914-1.21-7.653-2.82A1.729,1.729,0,0,0,0,213.9v.769C0,216.628,3.5,218.215,7.819,218.215Z" transform="translate(-0.001 -200.391)"/>
    <path id="Path_92" data-name="Path 92" class="cls-1" d="M10,275.11v-.173a16.769,16.769,0,0,1-2.179.14c-3.769,0-6.914-1.21-7.653-2.82a1.729,1.729,0,0,0-.164.726v.769c0,1.958,3.5,3.546,7.818,3.546a16.6,16.6,0,0,0,2.471-.181A2.8,2.8,0,0,1,10,275.879Z" transform="translate(0 -255.516)"/>
    <path id="Path_93" data-name="Path 93" class="cls-1" d="M176.057,22.379c-4.318,0-7.818,1.587-7.818,3.546v.769c0,1.958,3.5,3.546,7.818,3.546s7.818-1.587,7.818-3.546v-.769C183.875,23.966,180.374,22.379,176.057,22.379Z" transform="translate(-156.967 -22.379)"/>
    <path id="Path_94" data-name="Path 94" class="cls-1" d="M176.057,126.364c-3.769,0-6.914-1.21-7.653-2.82a1.729,1.729,0,0,0-.164.726v.769c0,1.958,3.5,3.546,7.818,3.546s7.818-1.587,7.818-3.546v-.769a1.729,1.729,0,0,0-.164-.726C182.971,125.154,179.826,126.364,176.057,126.364Z" transform="translate(-156.967 -116.766)"/>
    <path id="Path_95" data-name="Path 95" class="cls-1" d="M176.057,185.448c-3.769,0-6.914-1.21-7.653-2.82a1.729,1.729,0,0,0-.164.726v.769c0,1.958,3.5,3.546,7.818,3.546s7.818-1.587,7.818-3.546v-.769a1.729,1.729,0,0,0-.164-.726C182.971,184.238,179.826,185.448,176.057,185.448Z" transform="translate(-156.967 -171.891)"/>
    <path id="Path_96" data-name="Path 96" class="cls-1" d="M176.057,247.721c-3.769,0-6.914-1.21-7.653-2.82a1.729,1.729,0,0,0-.164.726v.769c0,1.958,3.5,3.546,7.818,3.546s7.818-1.587,7.818-3.546v-.769a1.729,1.729,0,0,0-.164-.726C182.971,246.511,179.826,247.721,176.057,247.721Z" transform="translate(-156.967 -229.992)"/>
    <path id="Path_97" data-name="Path 97" class="cls-1" d="M176.057,306.8c-3.769,0-6.914-1.21-7.653-2.819a1.729,1.729,0,0,0-.164.726v.769c0,1.958,3.5,3.546,7.818,3.546s7.818-1.587,7.818-3.546v-.769a1.729,1.729,0,0,0-.164-.726C182.971,305.594,179.826,306.8,176.057,306.8Z" transform="translate(-156.967 -285.116)"/>
  </g>
</svg>
