<svg xmlns="http://www.w3.org/2000/svg" width="23.511" height="22.466" viewBox="0 0 23.511 22.466">
  <defs>
    <style>
      .cls-1 {
        fill: #eca84b;
      }
    </style>
  </defs>
  <g id="deposit" transform="translate(0 -11.378)">
    <g id="Group_161" data-name="Group 161" transform="translate(9.927 19.477)">
      <g id="Group_160" data-name="Group 160">
        <path id="Path_115" data-name="Path 115" class="cls-1" d="M216.178,188.793a1.305,1.305,0,0,0,.522,1.044v-2.088A1.3,1.3,0,0,0,216.178,188.793Z" transform="translate(-216.178 -187.749)"/>
      </g>
    </g>
    <g id="Group_163" data-name="Group 163" transform="translate(4.702 16.127)">
      <g id="Group_162" data-name="Group 162">
        <path id="Path_116" data-name="Path 116" class="cls-1" d="M108.147,116.435V114.8a6.531,6.531,0,0,0,0,12.967v-1.63a2.878,2.878,0,0,1-2.09-2.764h1.567a1.3,1.3,0,0,0,.522,1.044v-2.46a2.873,2.873,0,0,1,0-5.528Z" transform="translate(-102.4 -114.805)"/>
      </g>
    </g>
    <g id="Group_165" data-name="Group 165" transform="translate(12.017 23.657)">
      <g id="Group_164" data-name="Group 164">
        <path id="Path_117" data-name="Path 117" class="cls-1" d="M261.689,278.771v2.088a1.3,1.3,0,0,0,0-2.088Z" transform="translate(-261.689 -278.771)"/>
      </g>
    </g>
    <g id="Group_167" data-name="Group 167" transform="translate(13.584 23.917)">
      <g id="Group_166" data-name="Group 166">
        <path id="Path_118" data-name="Path 118" class="cls-1" d="M295.822,284.444v9.927h9.927v-9.927Zm7.022,6.014-1.222-1.222V291.5h-1.567v-2.314l-1.275,1.274-1.108-1.108,3.14-3.14,3.14,3.14Z" transform="translate(-295.822 -284.444)"/>
      </g>
    </g>
    <g id="Group_169" data-name="Group 169" transform="translate(12.017 16.127)">
      <g id="Group_168" data-name="Group 168">
        <path id="Path_119" data-name="Path 119" class="cls-1" d="M261.689,114.805v1.63a2.878,2.878,0,0,1,2.09,2.764h-1.567a1.305,1.305,0,0,0-.522-1.044v2.46a2.866,2.866,0,0,1,.865.413h4.877A6.541,6.541,0,0,0,261.689,114.805Z" transform="translate(-261.689 -114.805)"/>
      </g>
    </g>
    <g id="Group_171" data-name="Group 171" transform="translate(0 11.378)">
      <g id="Group_170" data-name="Group 170">
        <path id="Path_120" data-name="Path 120" class="cls-1" d="M19.176,14.668a11.233,11.233,0,1,0-7.943,19.176q.393,0,.784-.027V30.672q-.389.037-.784.037a8.1,8.1,0,1,1,8.094-8.359h3.136A11.155,11.155,0,0,0,19.176,14.668Z" transform="translate(0 -11.378)"/>
      </g>
    </g>
  </g>
</svg>
